<svg width="59" height="36" viewBox="0 0 59 36" fill="none" xmlns="http://www.w3.org/2000/svg">
<path fill-rule="evenodd" clip-rule="evenodd" d="M55.2478 18L43.3923 2.94324C42.7877 2.17536 42.8937 1.04105 43.629 0.409689C44.3644 -0.221677 45.4506 -0.111015 46.0552 0.656861L58.4508 16.3995C59.1831 17.3295 59.1831 18.6705 58.4508 19.6005L46.0552 35.3431C45.4506 36.111 44.3644 36.2217 43.629 35.5903C42.8937 34.9589 42.7877 33.8246 43.3923 33.0568L55.2478 18Z" fill="#858AF7"/>
<path fill-rule="evenodd" clip-rule="evenodd" d="M3.75217 18L15.6077 33.0568C16.2123 33.8246 16.1063 34.9589 15.371 35.5903C14.6356 36.2217 13.5494 36.111 12.9448 35.3431L0.549188 19.6005C-0.183067 18.6705 -0.183061 17.3295 0.54919 16.3995L12.9448 0.656859C13.5494 -0.111016 14.6356 -0.221679 15.371 0.409687C16.1063 1.04105 16.2123 2.17536 15.6077 2.94324L3.75217 18Z" fill="#858AF7"/>
<rect width="5" height="5" transform="matrix(-1 0 0 1 20 15)" fill="#858AF7"/>
<rect width="5" height="5" transform="matrix(-1 0 0 1 32 15)" fill="#858AF7"/>
<rect width="5" height="5" transform="matrix(-1 0 0 1 45 15)" fill="#858AF7"/>
</svg>
