<svg width="444" height="71" viewBox="0 0 444 71" fill="none" xmlns="http://www.w3.org/2000/svg">
<path d="M72.792 42.176C72.792 38.2933 73.5947 34.84 75.2 31.816C76.8427 28.7547 79.1573 26.384 82.144 24.704C85.1307 22.9867 88.5653 22.128 92.448 22.128C97.376 22.128 101.52 23.4533 104.88 26.104C108.24 28.7173 110.405 32.2827 111.376 36.8H99.56C98.8507 35.3067 97.8613 34.168 96.592 33.384C95.36 32.6 93.9227 32.208 92.28 32.208C89.7413 32.208 87.7067 33.1227 86.176 34.952C84.6827 36.744 83.936 39.152 83.936 42.176C83.936 45.2373 84.6827 47.6827 86.176 49.512C87.7067 51.304 89.7413 52.2 92.28 52.2C93.9227 52.2 95.36 51.808 96.592 51.024C97.8613 50.24 98.8507 49.1013 99.56 47.608H111.376C110.405 52.1253 108.24 55.7093 104.88 58.36C101.52 60.9733 97.376 62.28 92.448 62.28C88.5653 62.28 85.1307 61.44 82.144 59.76C79.1573 58.0427 76.8427 55.672 75.2 52.648C73.5947 49.5867 72.792 46.096 72.792 42.176ZM131.19 62.392C128.054 62.392 125.235 61.7387 122.734 60.432C120.27 59.1253 118.328 57.2587 116.91 54.832C115.491 52.4053 114.782 49.5493 114.782 46.264C114.782 43.016 115.491 40.1787 116.91 37.752C118.366 35.3253 120.326 33.4587 122.79 32.152C125.291 30.8453 128.11 30.192 131.246 30.192C134.382 30.192 137.182 30.8453 139.646 32.152C142.147 33.4587 144.107 35.3253 145.526 37.752C146.982 40.1787 147.71 43.016 147.71 46.264C147.71 49.512 146.982 52.368 145.526 54.832C144.107 57.2587 142.147 59.1253 139.646 60.432C137.144 61.7387 134.326 62.392 131.19 62.392ZM131.19 52.872C132.72 52.872 133.99 52.312 134.998 51.192C136.043 50.0347 136.566 48.392 136.566 46.264C136.566 44.136 136.043 42.512 134.998 41.392C133.99 40.272 132.739 39.712 131.246 39.712C129.752 39.712 128.502 40.272 127.494 41.392C126.486 42.512 125.982 44.136 125.982 46.264C125.982 48.4293 126.467 50.072 127.438 51.192C128.408 52.312 129.659 52.872 131.19 52.872ZM150.383 46.264C150.383 43.016 150.962 40.1787 152.119 37.752C153.314 35.3253 154.938 33.4587 156.991 32.152C159.044 30.8453 161.322 30.192 163.823 30.192C165.839 30.192 167.631 30.6213 169.199 31.48C170.804 32.3013 172.055 33.44 172.951 34.896V20.56H183.983V62H172.951V57.632C172.092 59.088 170.879 60.2453 169.311 61.104C167.743 61.9627 165.895 62.392 163.767 62.392C161.266 62.392 158.988 61.7387 156.935 60.432C154.919 59.1253 153.314 57.2587 152.119 54.832C150.962 52.368 150.383 49.512 150.383 46.264ZM173.007 46.264C173.007 44.248 172.447 42.6613 171.327 41.504C170.244 40.3467 168.9 39.768 167.295 39.768C165.652 39.768 164.29 40.3467 163.207 41.504C162.124 42.624 161.583 44.2107 161.583 46.264C161.583 48.28 162.124 49.8853 163.207 51.08C164.29 52.2373 165.652 52.816 167.295 52.816C168.9 52.816 170.244 52.2373 171.327 51.08C172.447 49.9227 173.007 48.3173 173.007 46.264ZM220.254 45.928C220.254 46.7867 220.198 47.6453 220.086 48.504H199.31C199.422 50.2213 199.888 51.5093 200.71 52.368C201.568 53.1893 202.651 53.6 203.958 53.6C205.787 53.6 207.094 52.7787 207.878 51.136H219.582C219.096 53.3013 218.144 55.2427 216.726 56.96C215.344 58.64 213.59 59.9653 211.462 60.936C209.334 61.9067 206.982 62.392 204.406 62.392C201.307 62.392 198.544 61.7387 196.118 60.432C193.728 59.1253 191.843 57.2587 190.462 54.832C189.118 52.4053 188.446 49.5493 188.446 46.264C188.446 42.9787 189.118 40.1413 190.462 37.752C191.806 35.3253 193.672 33.4587 196.062 32.152C198.488 30.8453 201.27 30.192 204.406 30.192C207.504 30.192 210.248 30.8267 212.638 32.096C215.027 33.3653 216.894 35.1947 218.238 37.584C219.582 39.936 220.254 42.7173 220.254 45.928ZM209.054 43.184C209.054 41.84 208.606 40.7947 207.71 40.048C206.814 39.264 205.694 38.872 204.35 38.872C203.006 38.872 201.904 39.2453 201.046 39.992C200.187 40.7013 199.627 41.7653 199.366 43.184H209.054Z" fill="white"/>
<path d="M244.737 62L236.897 47.44H235.721V62H224.745V22.52H242.049C245.223 22.52 247.911 23.08 250.113 24.2C252.316 25.2827 253.977 26.7947 255.097 28.736C256.217 30.64 256.777 32.7867 256.777 35.176C256.777 37.864 256.031 40.2347 254.537 42.288C253.081 44.304 250.935 45.7413 248.097 46.6L257.001 62H244.737ZM235.721 39.936H241.153C242.647 39.936 243.767 39.5813 244.513 38.872C245.26 38.1627 245.633 37.136 245.633 35.792C245.633 34.5227 245.241 33.5333 244.457 32.824C243.711 32.0773 242.609 31.704 241.153 31.704H235.721V39.936Z" fill="url(#paint0_linear_24_12600)"/>
<path d="M291.785 45.928C291.785 46.7867 291.729 47.6453 291.617 48.504H270.841C270.953 50.2213 271.419 51.5093 272.241 52.368C273.099 53.1893 274.182 53.6 275.489 53.6C277.318 53.6 278.625 52.7787 279.409 51.136H291.113C290.627 53.3013 289.675 55.2427 288.257 56.96C286.875 58.64 285.121 59.9653 282.993 60.936C280.865 61.9067 278.513 62.392 275.937 62.392C272.838 62.392 270.075 61.7387 267.649 60.432C265.259 59.1253 263.374 57.2587 261.993 54.832C260.649 52.4053 259.977 49.5493 259.977 46.264C259.977 42.9787 260.649 40.1413 261.993 37.752C263.337 35.3253 265.203 33.4587 267.593 32.152C270.019 30.8453 272.801 30.192 275.937 30.192C279.035 30.192 281.779 30.8267 284.169 32.096C286.558 33.3653 288.425 35.1947 289.769 37.584C291.113 39.936 291.785 42.7173 291.785 45.928ZM280.585 43.184C280.585 41.84 280.137 40.7947 279.241 40.048C278.345 39.264 277.225 38.872 275.881 38.872C274.537 38.872 273.435 39.2453 272.577 39.992C271.718 40.7013 271.158 41.7653 270.897 43.184H280.585ZM311.341 51.64L317.221 30.584H328.925L318.117 62H304.453L293.645 30.584H305.349L311.341 51.64ZM338.188 27.672C336.246 27.672 334.678 27.1493 333.484 26.104C332.326 25.0213 331.748 23.6773 331.748 22.072C331.748 20.4293 332.326 19.0667 333.484 17.984C334.678 16.9013 336.246 16.36 338.188 16.36C340.092 16.36 341.622 16.9013 342.78 17.984C343.974 19.0667 344.572 20.4293 344.572 22.072C344.572 23.6773 343.974 25.0213 342.78 26.104C341.622 27.1493 340.092 27.672 338.188 27.672ZM343.62 30.584V62H332.644V30.584H343.62ZM379.886 45.928C379.886 46.7867 379.83 47.6453 379.718 48.504H358.942C359.054 50.2213 359.521 51.5093 360.342 52.368C361.201 53.1893 362.284 53.6 363.59 53.6C365.42 53.6 366.726 52.7787 367.51 51.136H379.214C378.729 53.3013 377.777 55.2427 376.358 56.96C374.977 58.64 373.222 59.9653 371.094 60.936C368.966 61.9067 366.614 62.392 364.038 62.392C360.94 62.392 358.177 61.7387 355.75 60.432C353.361 59.1253 351.476 57.2587 350.094 54.832C348.75 52.4053 348.078 49.5493 348.078 46.264C348.078 42.9787 348.75 40.1413 350.094 37.752C351.438 35.3253 353.305 33.4587 355.694 32.152C358.121 30.8453 360.902 30.192 364.038 30.192C367.137 30.192 369.881 30.8267 372.27 32.096C374.66 33.3653 376.526 35.1947 377.87 37.584C379.214 39.936 379.886 42.7173 379.886 45.928ZM368.686 43.184C368.686 41.84 368.238 40.7947 367.342 40.048C366.446 39.264 365.326 38.872 363.982 38.872C362.638 38.872 361.537 39.2453 360.678 39.992C359.82 40.7013 359.26 41.7653 358.998 43.184H368.686ZM430.802 30.584L422.794 62H410.474L406.106 42.96L401.57 62H389.306L381.354 30.584H392.274L395.802 51.416L400.45 30.584H412.21L417.026 51.472L420.498 30.584H430.802Z" fill="#858AF7"/>
<path fill-rule="evenodd" clip-rule="evenodd" d="M55.2478 46L43.3923 30.9432C42.7877 30.1754 42.8937 29.0411 43.629 28.4097C44.3644 27.7783 45.4506 27.889 46.0552 28.6569L58.4508 44.3995C59.1831 45.3295 59.1831 46.6705 58.4508 47.6005L46.0552 63.3431C45.4506 64.111 44.3644 64.2217 43.629 63.5903C42.8937 62.9589 42.7877 61.8246 43.3923 61.0568L55.2478 46Z" fill="#858AF7"/>
<path fill-rule="evenodd" clip-rule="evenodd" d="M3.75217 46L15.6077 61.0568C16.2123 61.8246 16.1063 62.9589 15.371 63.5903C14.6356 64.2217 13.5494 64.111 12.9448 63.3431L0.549188 47.6005C-0.183067 46.6705 -0.183061 45.3295 0.54919 44.3995L12.9448 28.6569C13.5494 27.889 14.6356 27.7783 15.371 28.4097C16.1063 29.0411 16.2123 30.1754 15.6077 30.9432L3.75217 46Z" fill="#858AF7"/>
<rect width="5" height="5" transform="matrix(-1 0 0 1 20 43)" fill="#858AF7"/>
<rect width="5" height="5" transform="matrix(-1 0 0 1 32 43)" fill="#858AF7"/>
<rect width="5" height="5" transform="matrix(-1 0 0 1 45 43)" fill="#858AF7"/>
<defs>
<linearGradient id="paint0_linear_24_12600" x1="242" y1="35" x2="192.5" y2="104" gradientUnits="userSpaceOnUse">
<stop stop-color="#858AF7"/>
<stop offset="1" stop-color="#2B31B9" stop-opacity="0"/>
</linearGradient>
</defs>
</svg>
