<svg width="444" height="71" viewBox="0 0 444 71" fill="none" xmlns="http://www.w3.org/2000/svg">
<path d="M72.792 42.176C72.792 38.2933 73.5947 34.84 75.2 31.816C76.8427 28.7547 79.1573 26.384 82.144 24.704C85.1307 22.9867 88.5653 22.128 92.448 22.128C97.376 22.128 101.52 23.4533 104.88 26.104C108.24 28.7173 110.405 32.2827 111.376 36.8H99.56C98.8507 35.3067 97.8613 34.168 96.592 33.384C95.36 32.6 93.9227 32.208 92.28 32.208C89.7413 32.208 87.7067 33.1227 86.176 34.952C84.6827 36.744 83.936 39.152 83.936 42.176C83.936 45.2373 84.6827 47.6827 86.176 49.512C87.7067 51.304 89.7413 52.2 92.28 52.2C93.9227 52.2 95.36 51.808 96.592 51.024C97.8613 50.24 98.8507 49.1013 99.56 47.608H111.376C110.405 52.1253 108.24 55.7093 104.88 58.36C101.52 60.9733 97.376 62.28 92.448 62.28C88.5653 62.28 85.1307 61.44 82.144 59.76C79.1573 58.0427 76.8427 55.672 75.2 52.648C73.5947 49.5867 72.792 46.096 72.792 42.176ZM131.19 62.392C128.054 62.392 125.235 61.7387 122.734 60.432C120.27 59.1253 118.328 57.2587 116.91 54.832C115.491 52.4053 114.782 49.5493 114.782 46.264C114.782 43.016 115.491 40.1787 116.91 37.752C118.366 35.3253 120.326 33.4587 122.79 32.152C125.291 30.8453 128.11 30.192 131.246 30.192C134.382 30.192 137.182 30.8453 139.646 32.152C142.147 33.4587 144.107 35.3253 145.526 37.752C146.982 40.1787 147.71 43.016 147.71 46.264C147.71 49.512 146.982 52.368 145.526 54.832C144.107 57.2587 142.147 59.1253 139.646 60.432C137.144 61.7387 134.326 62.392 131.19 62.392ZM131.19 52.872C132.72 52.872 133.99 52.312 134.998 51.192C136.043 50.0347 136.566 48.392 136.566 46.264C136.566 44.136 136.043 42.512 134.998 41.392C133.99 40.272 132.739 39.712 131.246 39.712C129.752 39.712 128.502 40.272 127.494 41.392C126.486 42.512 125.982 44.136 125.982 46.264C125.982 48.4293 126.467 50.072 127.438 51.192C128.408 52.312 129.659 52.872 131.19 52.872Z" fill="white"/>
<path d="M150.831 42.176C150.831 38.2933 151.634 34.84 153.239 31.816C154.882 28.7547 157.196 26.384 160.183 24.704C163.17 22.9867 166.604 22.128 170.487 22.128C175.415 22.128 179.559 23.4533 182.919 26.104C186.279 28.7173 188.444 32.2827 189.415 36.8H177.599C176.89 35.3067 175.9 34.168 174.631 33.384C173.399 32.6 171.962 32.208 170.319 32.208C167.78 32.208 165.746 33.1227 164.215 34.952C162.722 36.744 161.975 39.152 161.975 42.176C161.975 45.2373 162.722 47.6827 164.215 49.512C165.746 51.304 167.78 52.2 170.319 52.2C171.962 52.2 173.399 51.808 174.631 51.024C175.9 50.24 176.89 49.1013 177.599 47.608H189.415C188.444 52.1253 186.279 55.7093 182.919 58.36C179.559 60.9733 175.415 62.28 170.487 62.28C166.604 62.28 163.17 61.44 160.183 59.76C157.196 58.0427 154.882 55.672 153.239 52.648C151.634 49.5867 150.831 46.096 150.831 42.176ZM209.229 62.392C206.093 62.392 203.274 61.7387 200.773 60.432C198.309 59.1253 196.367 57.2587 194.949 54.832C193.53 52.4053 192.821 49.5493 192.821 46.264C192.821 43.016 193.53 40.1787 194.949 37.752C196.405 35.3253 198.365 33.4587 200.829 32.152C203.33 30.8453 206.149 30.192 209.285 30.192C212.421 30.192 215.221 30.8453 217.685 32.152C220.186 33.4587 222.146 35.3253 223.565 37.752C225.021 40.1787 225.749 43.016 225.749 46.264C225.749 49.512 225.021 52.368 223.565 54.832C222.146 57.2587 220.186 59.1253 217.685 60.432C215.183 61.7387 212.365 62.392 209.229 62.392ZM209.229 52.872C210.759 52.872 212.029 52.312 213.037 51.192C214.082 50.0347 214.605 48.392 214.605 46.264C214.605 44.136 214.082 42.512 213.037 41.392C212.029 40.272 210.778 39.712 209.285 39.712C207.791 39.712 206.541 40.272 205.533 41.392C204.525 42.512 204.021 44.136 204.021 46.264C204.021 48.4293 204.506 50.072 205.477 51.192C206.447 52.312 207.698 52.872 209.229 52.872ZM228.422 46.264C228.422 43.016 229.001 40.1787 230.158 37.752C231.353 35.3253 232.977 33.4587 235.03 32.152C237.083 30.8453 239.361 30.192 241.862 30.192C243.878 30.192 245.67 30.6213 247.238 31.48C248.843 32.3013 250.094 33.44 250.99 34.896V20.56H262.022V62H250.99V57.632C250.131 59.088 248.918 60.2453 247.35 61.104C245.782 61.9627 243.934 62.392 241.806 62.392C239.305 62.392 237.027 61.7387 234.974 60.432C232.958 59.1253 231.353 57.2587 230.158 54.832C229.001 52.368 228.422 49.512 228.422 46.264ZM251.046 46.264C251.046 44.248 250.486 42.6613 249.366 41.504C248.283 40.3467 246.939 39.768 245.334 39.768C243.691 39.768 242.329 40.3467 241.246 41.504C240.163 42.624 239.622 44.2107 239.622 46.264C239.622 48.28 240.163 49.8853 241.246 51.08C242.329 52.2373 243.691 52.816 245.334 52.816C246.939 52.816 248.283 52.2373 249.366 51.08C250.486 49.9227 251.046 48.3173 251.046 46.264ZM298.293 45.928C298.293 46.7867 298.237 47.6453 298.125 48.504H277.349C277.461 50.2213 277.927 51.5093 278.749 52.368C279.607 53.1893 280.69 53.6 281.997 53.6C283.826 53.6 285.133 52.7787 285.917 51.136H297.621C297.135 53.3013 296.183 55.2427 294.765 56.96C293.383 58.64 291.629 59.9653 289.501 60.936C287.373 61.9067 285.021 62.392 282.445 62.392C279.346 62.392 276.583 61.7387 274.157 60.432C271.767 59.1253 269.882 57.2587 268.501 54.832C267.157 52.4053 266.485 49.5493 266.485 46.264C266.485 42.9787 267.157 40.1413 268.501 37.752C269.845 35.3253 271.711 33.4587 274.101 32.152C276.527 30.8453 279.309 30.192 282.445 30.192C285.543 30.192 288.287 30.8267 290.677 32.096C293.066 33.3653 294.933 35.1947 296.277 37.584C297.621 39.936 298.293 42.7173 298.293 45.928ZM287.093 43.184C287.093 41.84 286.645 40.7947 285.749 40.048C284.853 39.264 283.733 38.872 282.389 38.872C281.045 38.872 279.943 39.2453 279.085 39.992C278.226 40.7013 277.666 41.7653 277.405 43.184H287.093ZM313.76 36.128C314.992 34.336 316.486 32.9173 318.24 31.872C319.995 30.8267 321.88 30.304 323.896 30.304V42.008H320.816C318.427 42.008 316.654 42.4747 315.496 43.408C314.339 44.3413 313.76 45.9653 313.76 48.28V62H302.784V30.584H313.76V36.128Z" fill="url(#paint0_linear_24_12600)"/>
<path fill-rule="evenodd" clip-rule="evenodd" d="M55.2478 46L43.3923 30.9432C42.7877 30.1754 42.8937 29.0411 43.629 28.4097C44.3644 27.7783 45.4506 27.889 46.0552 28.6569L58.4508 44.3995C59.1831 45.3295 59.1831 46.6705 58.4508 47.6005L46.0552 63.3431C45.4506 64.111 44.3644 64.2217 43.629 63.5903C42.8937 62.9589 42.7877 61.8246 43.3923 61.0568L55.2478 46Z" fill="#858AF7"/>
<path fill-rule="evenodd" clip-rule="evenodd" d="M3.75217 46L15.6077 61.0568C16.2123 61.8246 16.1063 62.9589 15.371 63.5903C14.6356 64.2217 13.5494 64.111 12.9448 63.3431L0.549188 47.6005C-0.183067 46.6705 -0.183061 45.3295 0.54919 44.3995L12.9448 28.6569C13.5494 27.889 14.6356 27.7783 15.371 28.4097C16.1063 29.0411 16.2123 30.1754 15.6077 30.9432L3.75217 46Z" fill="#858AF7"/>
<rect width="5" height="5" transform="matrix(-1 0 0 1 20 43)" fill="#858AF7"/>
<rect width="5" height="5" transform="matrix(-1 0 0 1 32 43)" fill="#858AF7"/>
<rect width="5" height="5" transform="matrix(-1 0 0 1 45 43)" fill="#858AF7"/>
<defs>
<linearGradient id="paint0_linear_24_12600" x1="242" y1="35" x2="192.5" y2="104" gradientUnits="userSpaceOnUse">
<stop offset="0.635417" stop-color="#858AF7"/>
<stop offset="1" stop-color="#5156BE" stop-opacity="0"/>
</linearGradient>
</defs>
</svg>
